# xmcd
#
# Track frame offsets:
#	300
#	17213
#	33826
#	52201
#	67945
#	82470
#	94220
#	104808
#	121852
#	131747
#	146704
#
# Disc length: 2214 seconds
#
# Revision: 1
# Processed by: cddbd v1.5.2PL0 Copyright (c) Steve Scherf et al.
# Submitted via: audiograbber 1.83.01
#
DISCID=a808a20b
DTITLE=Jenny Talia - The Blonde Leading The blond
DYEAR=2009
DGENRE=Comedy
TTITLE0=Dumb, Dumb, Dumb
TTITLE1=Fuck It
TTITLE2=Not Going To Give You...
TTITLE3=Hillbilly Love Machine
TTITLE4=Facebook
TTITLE5=Sarah Palin
TTITLE6=New Christmas Song
TTITLE7=Billy The Kid
TTITLE8=I Want A New Set Of Tits For Christmas
TTITLE9=Silent Night
TTITLE10=The Bastard Song
EXTD=
EXTT0=
EXTT1=
EXTT2=
EXTT3=
EXTT4=
EXTT5=
EXTT6=
EXTT7=
EXTT8=
EXTT9=
EXTT10=
PLAYORDER=
